<?xml version="1.0" encoding="utf-8"?>
<!-- Generator: Adobe Illustrator 24.1.2, SVG Export Plug-In . SVG Version: 6.00 Build 0)  -->
<svg version="1.1" id="Capa_1" xmlns="http://www.w3.org/2000/svg" xmlns:xlink="http://www.w3.org/1999/xlink" x="0px" y="0px"
	 viewBox="0 0 512 512" style="enable-background:new 0 0 512 512;" xml:space="preserve">
<style type="text/css">
	.st0{fill:#FD414B;}
	.st1{fill:#363A37;}
	.st2{fill:#FF555E;}
	.st3{fill:#262E29;}
	.st4{fill:#F9EFEF;}
	.st5{fill:#F8F8F8;}
</style>
<g>
	<g>
		<path class="st0" d="M81.5,57L60.3,35.8L92.1,4l21.2,21.2L81.5,57z"/>
		<path class="st1" d="M25.2,113.3L4,92.1l31.8-31.8l21.2,21.2L25.2,113.3z"/>
		<path class="st0" d="M123.9,99.5l-21.2-21.2l31.8-31.8l21.2,21.2L123.9,99.5z"/>
		<path class="st1" d="M67.7,155.7l-21.2-21.2l31.8-31.8l21.2,21.2L67.7,155.7z"/>
		<path class="st0" d="M221.8,407.6c4.1,25.6,15.5,49.4,34.4,68.2c53.1,53.1,145.3,46.9,206-13.7L183.6,155.3l-37,37
			c-30.5,48.3-28.4,108.7,8.9,145.9c8.4,8.4,17.9,15,28.3,19.8C203.8,367.5,218.3,385.8,221.8,407.6L221.8,407.6z"/>
		<path class="st2" d="M169.4,169.4l292.7,292.7c60.7-60.7,66.8-152.9,13.7-206c-18.9-18.9-42.7-30.2-68.2-34.4
			c-21.8-3.5-40.2-18-49.6-38.1c-4.9-10.3-11.5-19.9-19.8-28.3c-37.3-37.3-97.7-39.4-146-8.9L169.4,169.4z"/>
		<path class="st3" d="M228.2,273.9l37-37L22.8,22.8L0,45.7L228.2,273.9z"/>
		<path class="st1" d="M251.1,251L22.9,22.9L45.7,0l228.2,228.2L251.1,251z"/>
		<path class="st1" d="M231.8,231.8c-25.3,25.3-25.3,66.6,0,91.9s66.6,25.3,91.9,0l-31.8-60.1L231.8,231.8L231.8,231.8z"/>
		<path class="st0" d="M323.7,231.8c-25.3-25.3-66.6-25.3-91.9,0l91.9,91.9C349.1,298.4,349.1,257.1,323.7,231.8L323.7,231.8z"/>
		<path class="st4" d="M330.2,422.1l46-46l-3.5-17.7l-17.7-3.5l-46,46L330.2,422.1z"/>
		<path class="st5" d="M376.2,376.1L355,354.9l46-46l21.2,21.2L376.2,376.1z"/>
		<path class="st3" d="M253,302.5c13.6,13.6,35.9,13.6,49.5,0l-10.6-38.9L253,253C239.4,266.7,239.4,288.9,253,302.5L253,302.5z"/>
		<path class="st1" d="M302.5,253c-13.6-13.6-35.9-13.6-49.5,0l49.5,49.5C316.2,288.9,316.2,266.7,302.5,253L302.5,253z"/>
	</g>
</g>
</svg>
