<svg xmlns="http://www.w3.org/2000/svg" xmlns:xlink="http://www.w3.org/1999/xlink" viewBox="0 0 155.21 302.5"><defs><style>.cls-1{fill:url(#linear-gradient);}</style><linearGradient id="linear-gradient" x1="77.61" y1="164.51" x2="77.61" gradientUnits="userSpaceOnUse"><stop offset="0" stop-color="#8dc641"/><stop offset="1" stop-color="#4aaa48"/></linearGradient></defs><g id="Layer_2" data-name="Layer 2"><g id="Layer_1-2" data-name="Layer 1"><path class="cls-1" d="M45,164.51q.16-21.56,7.76-32.41t27.75-25A50.37,50.37,0,0,0,96.84,91a41.15,41.15,0,0,0,6-22.17q0-13-7-20.78T76,40.31q-10.38,0-17.36,6.36T51.33,65.59H.32L0,64.65Q-.45,32.41,20.55,16.2T76,0q36.9,0,58.07,18.61t21.16,50.23a60.3,60.3,0,0,1-11.55,35.66,81.9,81.9,0,0,1-29.38,25.58q-9.93,6.53-13.41,14t-3.49,20.39Z"/><image width="820" height="719" transform="translate(2.61 171.5) scale(0.18)" xlink:href="../Master's/Web%203/Project%202/symbol.png"/></g></g></svg>